<svg width="78" height="61" viewBox="0 0 78 61" fill="none" xmlns="http://www.w3.org/2000/svg">
<path d="M53.8226 28.2542L26.3667 0.696339L47.2324 0.226074L76.2505 23.3092L53.8226 28.2542Z" fill="#226E46"/>
<path d="M53.8226 28.2542L26.3667 0.696339L47.2324 0.226074L76.2505 23.3092L53.8226 28.2542Z" stroke="#226E46" stroke-width="1.33353" stroke-miterlimit="10" stroke-linecap="square"/>
<path d="M25.8337 1.41992L0.948486 25.4806" stroke="#226E46" stroke-width="3.99971" stroke-miterlimit="10" stroke-linecap="square"/>
<path d="M10.4587 7.26099H5.53882V21.2208L10.4587 16.7689V7.26099Z" fill="#226E46"/>
<path d="M27.4544 17.8581H22.0874V12.4773H27.4544V17.8581Z" fill="#226E46"/>
<path d="M35.0581 17.8581H29.6909V12.4773H35.0581V17.8581Z" fill="#226E46"/>
<path d="M35.0581 25.481H29.6909V20.1001H35.0581V25.481Z" fill="#226E46"/>
<path d="M27.4544 25.481H22.0874V20.1001H27.4544V25.481Z" fill="#226E46"/>
<path d="M1.59106 54.5935L77.1449 55.0418" stroke="#226E46" stroke-width="3.99971" stroke-miterlimit="10"/>
<path d="M3.33975 49.3166L4.21708 42.5384C4.4447 40.8575 4.58201 39.5818 4.69054 38.2898H4.70861C4.79143 39.6039 4.92081 40.874 5.11231 42.5384L5.8861 49.3166H6.71672L8.46094 36.2968H7.64838L6.83582 42.8668C6.64432 44.4874 6.47089 45.9383 6.344 47.3673H6.32594C6.23547 45.9931 6.06982 44.449 5.89638 42.9051L5.14844 36.2968H4.31782L3.49483 42.8668C3.28527 44.5477 3.09362 46.0916 2.99273 47.3837H2.97467C2.86599 46.1298 2.70049 44.5092 2.51927 42.8832L1.78704 36.2967H0.948486L2.50899 49.3164H3.33961L3.33975 49.3166ZM9.22974 36.2968V49.3166H10.0241V43.2118H13.0001V49.3166H13.8048V36.2968H13.0001V41.7445H10.0241V36.2968H9.22974ZM15.1817 36.2968V49.3166H15.9762V36.2968H15.1817ZM18.533 49.3166H19.3351V37.7259H21.2165V36.297H16.6594V37.7259H18.533V49.3166ZM25.0853 41.8213H22.6941V37.7095H25.2224V36.297H21.8997V49.3167H25.3596V47.9042H22.6943V43.212H25.0854V41.8213H25.0853ZM28.5007 36.297V49.3167H29.2952V43.212H32.2711V49.3167H33.0759V36.297H32.2711V41.7446H29.2952V36.297H28.5007ZM36.9448 36.0835C35.3015 36.0835 34.0877 38.7882 34.0877 42.9218C34.0877 46.8639 35.229 49.5302 36.8541 49.5302C38.4248 49.5302 39.711 47.154 39.711 42.67C39.711 38.8101 38.6243 36.0835 36.9448 36.0835ZM36.9086 37.4576C38.2335 37.4576 38.8726 40.1623 38.8726 42.752C38.8726 45.703 38.1584 48.1559 36.9008 48.1559C35.6482 48.1559 34.9366 45.6649 34.9366 42.8835C34.9366 40.0255 35.5939 37.4576 36.9086 37.4576ZM40.7359 36.297V43.9676C40.7359 48.0027 41.683 49.5302 42.9433 49.5302C44.2759 49.5302 45.2723 47.8877 45.2723 43.891V36.2971H44.4676V44.006C44.4676 46.8804 43.8853 48.1561 42.9718 48.1561C42.1488 48.1561 41.5382 46.9243 41.5382 44.006V36.2971H40.7361L40.7359 36.297ZM46.3385 48.6815C46.6672 49.1415 47.3167 49.5084 47.9093 49.5084C49.3611 49.5084 50.065 47.7728 50.065 45.7634C50.065 43.8526 49.5344 42.7904 48.4942 41.9363C47.6454 41.2411 47.2703 40.6442 47.2703 39.4288C47.2703 38.5364 47.5886 37.4743 48.4296 37.4743C48.9859 37.4743 49.3974 37.863 49.5993 38.0929L49.8168 36.7243C49.5425 36.3956 49.0869 36.0836 48.4581 36.0836C47.26 36.0836 46.4682 37.5947 46.4682 39.6205C46.4682 41.4547 47.0866 42.555 48.0933 43.3108C48.9239 43.9842 49.2526 44.6794 49.2526 45.9005C49.2526 47.2089 48.7765 48.1178 47.9639 48.1178C47.4153 48.1178 46.8951 47.7345 46.5407 47.2691L46.3388 48.6817L46.3385 48.6815ZM54.3349 41.8213H51.9437V37.7095H54.472V36.297H51.1492V49.3167H54.6093V47.9042H51.9439V43.212H54.335V41.8213H54.3349ZM59.6499 49.3166L61.8495 36.2968H61.0007L59.9605 42.7301C59.6862 44.4274 59.4299 46.0698 59.2566 47.5754H59.2386C59.0755 46.0534 58.8453 44.471 58.5814 42.7081L57.6237 36.2968H56.7646L58.7727 49.3166H59.65H59.6499ZM62.5173 36.2968V49.3166H63.3116V36.2968H62.5173ZM64.6987 49.3166H68.1225V47.904H65.4933V36.2968H64.6988V49.3166H64.6987ZM69.0073 49.3166H72.4311V47.904H69.802V36.2968H69.0075V49.3166H69.0073ZM76.4939 45.2213L77.1511 49.3166H77.9999L75.8987 36.2968H74.9411L72.8501 49.3166H73.6731L74.3122 45.2213H76.4939ZM74.4752 43.9072L75.0782 40.1404C75.1973 39.3519 75.2984 38.5581 75.3888 37.7861H75.4069C75.4974 38.5361 75.5906 39.3137 75.7251 40.1623L76.3281 43.9073H74.4752V43.9072Z" fill="#226E46"/>
<path d="M3.34034 49.3164L4.21649 42.5368C4.44514 40.8567 4.58187 39.5818 4.69142 38.2874H4.70978C4.79202 39.6011 4.91964 40.8759 5.11143 42.5368L5.88742 49.3164H6.71805L8.46197 36.2981H7.64926L6.837 42.8652C6.6452 44.4874 6.47162 45.9362 6.34415 47.3654H6.32579C6.23445 45.9942 6.06997 44.4494 5.89638 42.9037L5.14815 36.2982H4.31723L3.49557 42.8653C3.28586 44.5454 3.09392 46.0911 2.99376 47.3848H2.9754C2.86585 46.1298 2.70137 44.507 2.51883 42.8846L1.78836 36.2984H0.948486L2.50987 49.3166H3.34049L3.34034 49.3164Z" stroke="#226E46" stroke-width="1.33353" stroke-miterlimit="10"/>
<path d="M9.22876 36.2981V49.3162H10.023V43.2128H12.9992V49.3162H13.8025V36.2981H12.9992V41.7449H10.023V36.2981H9.22876Z" stroke="#226E46" stroke-width="1.33353" stroke-miterlimit="10"/>
<path d="M15.1809 36.2981V49.3162H15.9753V36.2981H15.1809Z" stroke="#226E46" stroke-width="1.33353" stroke-miterlimit="10"/>
<path d="M18.5314 49.3164H19.3347V37.7271H21.2155V36.2981H16.6597V37.7271H18.5314V49.3164Z" stroke="#226E46" stroke-width="1.33353" stroke-miterlimit="10"/>
<path d="M25.0863 41.8221H22.6942V37.708H25.223V36.2983H21.8999V49.3165H25.36V47.9061H22.6942V43.2132H25.0863V41.8221Z" stroke="#226E46" stroke-width="1.33353" stroke-miterlimit="10"/>
<path d="M28.3269 36.2981V49.3162H29.1211V43.2128H32.0973V49.3162H32.9006V36.2981H32.0973V41.7449H29.1211V36.2981H28.3269Z" stroke="#226E46" stroke-width="1.33353" stroke-miterlimit="10"/>
<path d="M36.7711 36.0857C35.1279 36.0857 33.9136 38.7896 33.9136 42.9231C33.9136 46.8634 35.0549 49.5286 36.6799 49.5286C38.2503 49.5286 39.5375 47.1533 39.5375 42.6719C39.5375 38.8089 38.451 36.0857 36.7711 36.0857ZM36.7345 37.4575C38.0585 37.4575 38.6976 40.1613 38.6976 42.7491C38.6976 45.7046 37.9856 48.1577 36.7257 48.1577C35.4751 48.1577 34.7631 45.6659 34.7631 42.8845C34.7631 40.0258 35.4202 37.4573 36.7345 37.4573V37.4575Z" stroke="#226E46" stroke-width="1.33353" stroke-miterlimit="10"/>
<path d="M40.56 36.2981V43.9663C40.56 48.0033 41.5095 49.5288 42.769 49.5288C44.1023 49.5288 45.0974 47.8872 45.0974 43.8892V36.2981H44.2941V44.0049C44.2941 46.8823 43.7094 48.1575 42.7966 48.1575C41.9749 48.1575 41.3631 46.9212 41.3631 44.0049V36.2981H40.5598H40.56Z" stroke="#226E46" stroke-width="1.33353" stroke-miterlimit="10"/>
<path d="M46.1653 48.6787C46.4941 49.1422 47.1422 49.5096 47.7356 49.5096C49.187 49.5096 49.89 47.771 49.89 45.7622C49.89 43.8498 49.3604 42.7879 48.3197 41.9381C47.4708 41.2426 47.0965 40.6441 47.0965 39.427C47.0965 38.5388 47.4159 37.4766 48.2558 37.4766C48.8127 37.4766 49.2236 37.8627 49.4245 38.0946L49.6437 36.7234C49.37 36.3946 48.9133 36.0857 48.2831 36.0857C47.0875 36.0857 46.2932 37.5925 46.2932 39.6206C46.2932 41.4556 46.9141 42.5563 47.918 43.3091C48.7486 43.9854 49.0773 44.6809 49.0773 45.8978C49.0773 47.2113 48.6028 48.1188 47.7901 48.1188C47.2423 48.1188 46.7222 47.7328 46.366 47.2691L46.1653 48.679V48.6787Z" stroke="#226E46" stroke-width="1.33353" stroke-miterlimit="10"/>
<path d="M54.1622 41.8221H51.7702V37.708H54.2989V36.2983H50.9758V49.3165H54.4359V47.9061H51.7702V43.2132H54.1622V41.8221Z" stroke="#226E46" stroke-width="1.33353" stroke-miterlimit="10"/>
<path d="M59.3018 49.3164L61.5018 36.2981H60.653L59.6121 42.7301C59.3383 44.4301 59.0826 46.0716 58.9091 47.578H58.8911C58.7265 46.0525 58.4983 44.4681 58.2337 42.7109L57.2751 36.2981H56.4167L58.4253 49.3164H59.3015H59.3018Z" stroke="#226E46" stroke-width="1.33353" stroke-miterlimit="10"/>
<path d="M62.1685 36.2981V49.3162H62.9628V36.2981H62.1685Z" stroke="#226E46" stroke-width="1.33353" stroke-miterlimit="10"/>
<path d="M64.3503 49.3164H67.7742V47.906H65.1448V36.2981H64.3503V49.3164Z" stroke="#226E46" stroke-width="1.33353" stroke-miterlimit="10"/>
<path d="M68.6594 49.3164H72.0828V47.906H69.4533V36.2981H68.6594V49.3164Z" stroke="#226E46" stroke-width="1.33353" stroke-miterlimit="10"/>
<path d="M76.145 45.2215L76.8025 49.3162H77.6515L75.552 36.2981H74.5932L72.5027 49.3162H73.3243L73.9635 45.2215H76.1452H76.145ZM74.1274 43.908L74.7298 40.1418C74.8489 39.3495 74.949 38.558 75.0402 37.7855H75.0584C75.1498 38.5387 75.241 39.3109 75.3778 40.1611L75.9808 43.908H74.1272H74.1274Z" stroke="#226E46" stroke-width="1.33353" stroke-miterlimit="10"/>
<path d="M1.84302 57.6226H35.5051" stroke="#226E46" stroke-width="2.66662" stroke-miterlimit="10"/>
<path d="M41.9507 57.6226H77.1005" stroke="#226E46" stroke-width="2.66662" stroke-miterlimit="10"/>
<path d="M40.8723 58.4059C40.8723 59.591 39.9143 60.5515 38.7321 60.5515C37.5501 60.5515 36.5916 59.591 36.5916 58.4059C36.5916 57.2208 37.5501 56.2603 38.7321 56.2603C39.9142 56.2603 40.8723 57.2207 40.8723 58.4059Z" fill="#226E46"/>
<path d="M40.8723 58.4059C40.8723 59.591 39.9143 60.5515 38.7321 60.5515C37.5501 60.5515 36.5916 59.591 36.5916 58.4059C36.5916 57.2208 37.5501 56.2603 38.7321 56.2603C39.9142 56.2603 40.8723 57.2207 40.8723 58.4059Z" stroke="#226E46" stroke-width="2.66662" stroke-miterlimit="10"/>
</svg>
